<?xml version="1.0" encoding="utf-8"?>
<!-- Generator: Adobe Illustrator 27.0.0, SVG Export Plug-In . SVG Version: 6.00 Build 0)  -->
<svg version="1.1" id="Layer_1" xmlns="http://www.w3.org/2000/svg" xmlns:xlink="http://www.w3.org/1999/xlink" x="0px" y="0px"
	 viewBox="0 0 864 209" style="enable-background:new 0 0 864 209;" xml:space="preserve">
<style type="text/css">
	.st0{fill:#F29418;}
	.st1{fill:#EB721F;}
	.st2{fill:#AD2A0C;}
	.st3{fill:#FFFFFF;}
</style>
<g>
	<rect x="282.9" y="26" class="st0" width="135.3" height="28.6"/>
	<rect x="78.9" y="57.1" class="st1" width="339.7" height="44"/>
	<rect x="202.8" y="102.8" class="st2" width="215.4" height="44"/>
	<polygon class="st2" points="785.1,26.3 785.1,147.1 421.2,147.1 432.8,26.3 	"/>
	<path class="st3" d="M287.3,31.4h2h2l4.9,21.5h-1.6H293l-1-4.9h-5.8l-1,4.9h-1.4h-1.4L287.3,31.4z M286.8,45.6h4.8l-2.4-11.6h0
		L286.8,45.6z"/>
	<path class="st3" d="M305.8,31.4h1.5h3.4c2.5,0,4.2,0.4,5.1,1.3c0.9,0.9,1.4,2.4,1.4,4.7v-0.2c0,2.2-0.5,3.8-1.5,4.8
		c-1,1-2.7,1.5-5,1.5h-1.9v9.5h-1.5h-1.5L305.8,31.4L305.8,31.4z M308.7,41h1.9c1.4,0,2.3-0.3,2.8-0.8c0.5-0.5,0.7-1.5,0.7-3v0.2
		c0-1.4-0.3-2.3-0.8-2.9s-1.4-0.8-2.8-0.8h-1.9V41z"/>
	<path class="st3" d="M320,52.9V31.4h1.5h1.5v19.1h6.3v1.2v1.2H320z"/>
	<path class="st3" d="M336,31.4h2h2l4.9,21.5h-1.6h-1.6l-1-4.9h-5.8l-1,4.9h-1.4H331L336,31.4z M335.4,45.6h4.8l-2.4-11.6h0
		L335.4,45.6z"/>
	<path class="st3" d="M359.4,45.9v0.6c0.1,2.3-0.3,4-1.2,5.1c-0.9,1-2.4,1.6-4.4,1.6c-2,0-3.5-0.5-4.5-1.4c-1-1-1.5-2.4-1.5-4.4
		v-9.6c0-2.3,0.5-4,1.4-5c0.9-1,2.5-1.5,4.6-1.5c2,0,3.5,0.5,4.4,1.4c0.8,0.8,1.2,2.1,1.2,3.7l0,0.7v0.6h-2.9V37
		c0-1.3-0.1-2.2-0.5-2.7c-0.4-0.5-1-0.7-2.1-0.7c-1.1,0-1.9,0.3-2.4,0.9c-0.5,0.6-0.7,1.5-0.7,2.8v9.6c0,1.5,0.2,2.5,0.6,3.1
		c0.4,0.6,1.2,0.9,2.3,0.9c1,0,1.7-0.3,2.2-1c0.4-0.7,0.6-1.7,0.6-3.2v-0.6L359.4,45.9L359.4,45.9z"/>
	<path class="st3" d="M363.1,52.9V31.4h9.6v1.2v1.2H366v6.8h6.3v1.2v1.2H366v7.4h6.9v1.2v1.2H363.1z"/>
	<path class="st3" d="M386.8,33.8h-5v-1.2v-1.2h12.9v1.2v1.2h-5v19.1h-1.5h-1.5L386.8,33.8L386.8,33.8z"/>
	<path class="st3" d="M398.9,51.6c-0.9-1-1.3-2.9-1.3-5.7V38c0-2.4,0.5-4.2,1.4-5.2c1-1.1,2.5-1.6,4.7-1.6c2.2,0,3.8,0.5,4.7,1.6
		c0.9,1.1,1.4,2.9,1.4,5.4v9c0,2.1-0.5,3.7-1.4,4.6c-1,1-2.5,1.4-4.7,1.4C401.4,53.2,399.7,52.7,398.9,51.6z M406.1,49.8
		c0.5-0.7,0.7-1.7,0.7-3.2v-9c0-1.5-0.2-2.5-0.7-3.1c-0.5-0.6-1.3-0.8-2.5-0.8c-1.1,0-1.9,0.4-2.4,1.1c-0.5,0.7-0.7,1.8-0.7,3.4V46
		c0,1.8,0.2,3.1,0.7,3.8c0.5,0.7,1.3,1,2.5,1C404.8,50.8,405.6,50.4,406.1,49.8z"/>
	<path class="st3" d="M89.8,97l-5.9-35h2.3h2.3l4.1,28l0,0l4.1-28h2.9h2.9l4.1,27.7h0l4.2-27.7h2.3h2.3l-6,35h-2.7H104l-4.3-28.9h0
		L95.3,97h-2.7H89.8z"/>
	<path class="st3" d="M121.8,94.9c-1.4-1.7-2.1-4.8-2.1-9.3V72.7c0-3.9,0.8-6.8,2.3-8.5c1.6-1.7,4.1-2.6,7.6-2.6
		c3.6,0,6.1,0.9,7.7,2.6c1.5,1.7,2.3,4.6,2.3,8.7v14.7c0,3.5-0.8,6-2.3,7.5c-1.6,1.5-4.1,2.3-7.6,2.3
		C125.9,97.4,123.3,96.6,121.8,94.9z M133.6,91.9c0.8-1.1,1.2-2.8,1.2-5.3V71.9c0-2.4-0.4-4.1-1.1-5c-0.7-0.9-2.1-1.4-4.1-1.4
		c-1.8,0-3.1,0.6-3.9,1.7c-0.8,1.1-1.2,3-1.2,5.6v12.9c0,3,0.4,5,1.1,6.1c0.7,1.1,2.1,1.7,4.1,1.7C131.5,93.5,132.8,93,133.6,91.9z"
		/>
	<path class="st3" d="M145.6,62h2.4h8.7c2.9,0,5,0.7,6.4,2.1c1.4,1.4,2.1,3.6,2.1,6.6v-0.3c0,3.2-0.8,5.5-2.4,6.9
		c-1,1-2.5,1.6-4.5,1.9c2.1,0.1,3.6,0.6,4.4,1.5c1,1,1.5,3,1.5,5.9c0,2.1,0.1,3.9,0.3,5.3l0.1,0.8c0.1,0.9,0.2,1.7,0.4,2.3
		c0.1,0.6,0.3,1.3,0.5,2H163h-2.5c-0.2-1.1-0.4-1.9-0.5-2.5c-0.1-0.6-0.2-1.1-0.2-1.5l-0.1-0.7c-0.1-1.5-0.2-3.1-0.3-4.8
		c0-2.3-0.5-3.9-1.3-4.8c-0.8-1-2.2-1.4-4-1.4h-3.7h0V97H148h-2.4L145.6,62L145.6,62z M150.4,77.2h3.8c2.4,0,4-0.5,4.9-1.4
		c0.9-0.9,1.3-2.6,1.3-5.2V71c0-1.9-0.4-3.2-1.3-4c-0.9-0.7-2.5-1.1-4.9-1.1h-3.8L150.4,77.2L150.4,77.2z"/>
	<path class="st3" d="M184.3,72.2v-1c0-2-0.3-3.5-1-4.3c-0.7-0.9-1.8-1.3-3.3-1.3c-1.7,0-3,0.4-3.7,1.2c-0.8,0.8-1.2,2-1.2,3.8
		c0,1.4,0.3,2.5,1,3.2c0.7,0.8,2.2,1.8,4.5,3c3.6,1.9,6,3.6,7.2,5c1.1,1.4,1.7,3.3,1.7,5.7c0,3.3-0.9,5.8-2.6,7.5
		c-1.7,1.7-4.3,2.5-7.7,2.5c-3.7,0-6.2-0.9-7.7-2.6c-1.4-1.6-2.1-4.1-2.1-7.6l0-0.9v-1h4.9v1c0,2.7,0.3,4.6,1,5.6
		c0.7,1,2,1.5,3.9,1.5c1.9,0,3.3-0.4,4.2-1.3c0.9-0.9,1.3-2.3,1.3-4.3c0-1.5-0.4-2.7-1.2-3.6c-0.8-0.8-2.5-2-5.2-3.4
		c-3.1-1.7-5.3-3.2-6.5-4.7c-1.2-1.5-1.8-3.2-1.8-5.3c0-3.1,0.8-5.4,2.5-7c1.6-1.5,4.1-2.3,7.4-2.3c3.4,0,5.8,0.7,7.2,2.1
		c1.3,1.3,1.9,3.5,1.9,6.6l0,0.8v1L184.3,72.2L184.3,72.2z"/>
	<path class="st3" d="M194.4,62h2.4h2.4v15h10.1V62h2.4h2.4v35h-2.4h-2.4V81h-10.1v16h-2.4h-2.4L194.4,62L194.4,62z"/>
	<path class="st3" d="M220.2,62h2.4h2.4v35h-2.4h-2.4V62z"/>
	<path class="st3" d="M231.2,62h2.4h5.5c4,0,6.8,0.7,8.3,2.1c1.5,1.4,2.3,3.9,2.3,7.6v-0.4c0,3.6-0.8,6.1-2.5,7.7
		c-1.7,1.6-4.4,2.4-8.1,2.4H236V97h-2.4h-2.4V62z M236,77.6h3.1c2.2,0,3.8-0.4,4.6-1.3c0.8-0.9,1.2-2.5,1.2-4.8v0.4
		c0-2.2-0.4-3.8-1.3-4.6c-0.8-0.8-2.4-1.3-4.6-1.3H236L236,77.6L236,77.6z"/>
	<path class="st3" d="M267.9,77.9h-5v-1.2v-1.2h12.9v1.2v1.2h-5V97h-1.5h-1.5L267.9,77.9L267.9,77.9z"/>
	<path class="st3" d="M278.6,75.5h1.5h1.5v9.2h6.2v-9.2h1.5h1.5V97h-1.5h-1.5v-9.9h-6.2V97H280h-1.5L278.6,75.5L278.6,75.5z"/>
	<path class="st3" d="M294.5,97V75.5h9.6v1.2v1.2h-6.7v6.8h6.3v1.2v1.2h-6.3v7.4h6.9v1.2V97L294.5,97L294.5,97z"/>
	<path class="st3" d="M318.7,97V62h2.4h2.4v31h10.2v2v2L318.7,97L318.7,97z"/>
	<path class="st3" d="M340.1,94.9c-1.4-1.7-2.1-4.8-2.1-9.3V72.7c0-3.9,0.8-6.8,2.3-8.5c1.6-1.7,4.1-2.6,7.6-2.6
		c3.6,0,6.1,0.9,7.7,2.6c1.5,1.7,2.3,4.6,2.3,8.7v14.7c0,3.5-0.8,6-2.3,7.5c-1.6,1.5-4.1,2.3-7.6,2.3
		C344.1,97.4,341.5,96.6,340.1,94.9z M351.9,91.9c0.8-1.1,1.2-2.8,1.2-5.3V71.9c0-2.4-0.4-4.1-1.1-5c-0.7-0.9-2.1-1.4-4.1-1.4
		c-1.8,0-3.1,0.6-3.9,1.7c-0.8,1.1-1.2,3-1.2,5.6v12.9c0,3,0.4,5,1.1,6.1c0.7,1.1,2.1,1.7,4.1,1.7C349.8,93.5,351.1,93,351.9,91.9z"
		/>
	<path class="st3" d="M363.9,62h2.4h8.7c2.9,0,5,0.7,6.4,2.1c1.4,1.4,2.1,3.6,2.1,6.6v-0.3c0,3.2-0.8,5.5-2.4,6.9
		c-1,1-2.5,1.6-4.5,1.9c2.1,0.1,3.6,0.6,4.4,1.5c1,1,1.5,3,1.5,5.9c0,2.1,0.1,3.9,0.3,5.3l0.1,0.8c0.1,0.9,0.2,1.7,0.4,2.3
		c0.1,0.6,0.3,1.3,0.5,2h-2.5h-2.5c-0.2-1.1-0.4-1.9-0.5-2.5c-0.1-0.6-0.2-1.1-0.2-1.5l-0.1-0.7c-0.1-1.5-0.2-3.1-0.3-4.8
		c0-2.3-0.5-3.9-1.3-4.8s-2.2-1.4-4-1.4h-3.7h0V97h-2.4h-2.4V62z M368.6,77.2h3.8c2.4,0,4-0.5,4.9-1.4c0.9-0.9,1.3-2.6,1.3-5.2V71
		c0-1.9-0.4-3.2-1.3-4c-0.9-0.7-2.5-1.1-4.9-1.1h-3.8V77.2z"/>
	<path class="st3" d="M388.9,62h2.4h6.1c4,0,6.9,0.8,8.7,2.4c1.8,1.6,2.7,4.3,2.7,7.9V86c0,3.9-0.7,6.7-2.1,8.4
		c-1.4,1.7-3.6,2.6-6.7,2.6h-8.8h-2.4L388.9,62L388.9,62z M393.6,93.1h4.9c2.1,0,3.5-0.5,4.3-1.5c0.8-1,1.2-2.8,1.2-5.5V72.5
		c0-2.4-0.4-4.1-1.3-5c-0.9-0.9-2.5-1.4-4.7-1.4h-4.3L393.6,93.1L393.6,93.1z"/>
	<path class="st3" d="M213.1,108.8h2.9h3l7.4,32.3H224h-2.4l-1.5-7.3h-8.6l-1.5,7.3h-2.1h-2.1L213.1,108.8z M212.3,130.1h7.2
		l-3.6-17.3h0L212.3,130.1z"/>
	<path class="st3" d="M230.8,141.1v-32.3h2.2h2.2v28.6h9.4v1.8v1.8L230.8,141.1L230.8,141.1z"/>
	<path class="st3" d="M252.7,141.1h-2h-2.1v-32.3h3.6h3.6l5.9,26h0l5.7-26h3.6h3.6v32.3h-2h-2.1v-28h0l-6.6,28h-2.2h-2.2l-6.6-28.1
		h0V141.1z"/>
	<path class="st3" d="M280.1,108.8h2.2h2.2v32.3h-2.2h-2.2V108.8z"/>
	<path class="st3" d="M299.7,141.5c-3.6,0-6.1-0.8-7.4-2.3s-2-4.4-2-8.5v-11.9c0-3.6,0.7-6.3,2.2-7.9c1.5-1.6,3.9-2.4,7.2-2.4
		c3.1,0,5.4,0.7,6.8,2c1.4,1.4,2.1,3.5,2.1,6.4v1h-4.4v-1c0-1.7-0.3-2.9-1-3.7s-1.9-1.1-3.5-1.1c-1.8,0-3.1,0.5-3.9,1.6
		c-0.8,1.1-1.2,2.8-1.2,5.1v11.9c0,2.7,0.4,4.6,1.1,5.6c0.7,1,2,1.5,3.9,1.5c1.7,0,3.2-0.3,4.5-0.8v-9.5h-4.9V124h9.4v16
		C306.4,141,303.5,141.5,299.7,141.5z"/>
	<path class="st3" d="M314.1,108.8h2.2h2.2v13.9h9.3v-13.9h2.2h2.2v32.3h-2.2h-2.2v-14.8h-9.3v14.8h-2.2h-2.2L314.1,108.8
		L314.1,108.8z"/>
	<path class="st3" d="M344.1,112.4h-7.4v-1.8v-1.8h19.3v1.8v1.8h-7.4v28.6h-2.2h-2.2V112.4z"/>
	<path class="st3" d="M365.9,127.5l-7.4-18.7h2.5h2.5l4.8,14.3v0l4.8-14.3h2.3h2.3l-7.4,18.7v13.6h-2.2h-2.2L365.9,127.5
		L365.9,127.5z"/>
	<path class="st3" d="M387.3,119.6h1.5h1.5v21.5h-1.5h-1.5L387.3,119.6L387.3,119.6z"/>
	<path class="st3" d="M396.7,141.1h-1.4H394v-21.5h2.3h2.3l5.6,18.6v-18.6h1.4h1.4v21.5h-2.3h-2.3l-5.5-18.5L396.7,141.1
		L396.7,141.1z"/>
	<path class="st3" d="M451.6,37.2h7.6h14.7c7.9,0,13.6,1.1,17,3.4c3.4,2.3,5.1,6.1,5.1,11.4c0,6.1-1.7,10.1-5.1,12.2
		c-1.7,1.1-4.4,1.9-7.9,2.5h0.8c4.1,0,7.2,1,9.4,3.1c2.1,2.1,3,5.1,2.8,9c-0.1,2.2-0.1,4.5-0.1,6.9c0.1,2.5,0.2,4.4,0.3,5.7
		s0.3,2.2,0.6,2.9h-7.6h-7.6c-0.2-0.6-0.4-1.6-0.5-2.8c-0.1-1.3-0.2-3.2-0.2-5.7v-6.9c0.1-2.9-0.6-4.9-2.1-6.1
		c-1.5-1.2-4-1.8-7.7-1.8h-4.4v23.3h-7.6h-7.6V37.2z M466.7,62.2h4.2c3.9,0,6.5-0.6,7.8-1.7c1.3-1.1,2-3.4,2-6.7
		c0-3.1-0.7-5.3-2.1-6.4c-1.4-1.1-4-1.7-7.7-1.7h-4.2L466.7,62.2L466.7,62.2z"/>
	<path class="st3" d="M519,37.2h8.9h8.9l16.8,57.2h-7.3h-7.3L536,82h-16.1l-3,12.4h-7.3h-7.3L519,37.2z M521.8,73.5H534l-6-25.6h0
		L521.8,73.5z"/>
	<path class="st3" d="M562.1,94.3V37.2h7.6h7.6v48.7h19.2v4.3v4.3H562.1z"/>
	<path class="st3" d="M604.7,94.3V37.2h37v4.3v4.3h-21.8v15.1h21.1V65v4.3h-21.1v16.5H642v4.3v4.3L604.7,94.3L604.7,94.3z"/>
	<path class="st3" d="M650.8,37.2h7.6h7.6v57.2h-7.6h-7.6V37.2z"/>
	<path class="st3" d="M698.9,95.2c-8.5,0-14.5-1.7-17.8-5.1c-3.4-3.4-5-9.5-5.1-18.1V58.4c0-7.8,2-13.4,5.8-16.9
		c3.8-3.5,10-5.2,18.6-5.2c7.5,0,13.1,1.4,16.7,4.2c3.6,2.8,5.3,7,5.1,12.6v1.7h-15v-1.7c0.1-2.8-0.5-4.8-1.8-6.2s-3.2-2.1-5.8-2.1
		c-3.1,0-5.3,0.9-6.5,2.8c-1.2,1.9-1.8,5.2-1.8,10v13.5c0,6.2,0.6,10.4,1.8,12.3c1.2,2,3.6,3,7.2,3c1.4,0,3.7-0.3,6.9-0.9V72.5h-7
		V64h22.1v28.9C714.1,94.4,706.4,95.2,698.9,95.2L698.9,95.2L698.9,95.2z"/>
	<path class="st3" d="M733.5,37.2h7.6h7.6v23.6H763V37.2h7.6h7.6v57.2h-7.6H763v-25h-14.4v25h-7.6h-7.6V37.2z"/>
	<path class="st3" d="M456.9,135.3h-2.8h-2.8v-33.4h5h5l5.8,28.2v-28.2h2.8h2.8v33.4h-5h-5l-5.8-28.4V135.3z"/>
	<path class="st3" d="M481.1,133.2c-1.6-1.7-2.3-4.6-2.3-8.8v-13.8c0-3.1,0.9-5.4,2.6-7c1.7-1.5,4.3-2.3,7.8-2.3
		c3.5,0,6.1,0.8,7.8,2.3c1.7,1.5,2.6,3.9,2.6,7v13.8c0,4.2-0.8,7.1-2.3,8.8c-1.6,1.7-4.3,2.6-8.1,2.6
		C485.3,135.8,482.6,134.9,481.1,133.2z M491.9,129.4c0.5-0.9,0.8-2.5,0.8-4.7V111c0-1.5-0.3-2.6-0.9-3.4c-0.6-0.8-1.5-1.2-2.7-1.2
		c-1.2,0-2.1,0.4-2.7,1.2c-0.6,0.8-0.9,1.9-0.9,3.4v13.8c0,2.3,0.3,3.8,0.8,4.7c0.5,0.9,1.4,1.3,2.8,1.3
		C490.5,130.8,491.4,130.3,491.9,129.4z"/>
	<path class="st3" d="M505.4,101.9h3.4h6.6c3.6,0,6.1,0.7,7.7,2c1.5,1.3,2.3,3.6,2.3,6.7c0,3.5-0.8,5.9-2.3,7.2
		c-0.8,0.6-2,1.1-3.6,1.4h0.4c1.9,0,3.3,0.6,4.2,1.8c1,1.2,1.4,3,1.3,5.2c0,1.3-0.1,2.6,0,4.1c0,1.5,0.1,2.6,0.1,3.3
		c0.1,0.8,0.2,1.3,0.3,1.7h-3.4H519c-0.1-0.4-0.2-0.9-0.2-1.7c0-0.7-0.1-1.9-0.1-3.3v-4.1c0-1.7-0.3-2.9-0.9-3.5
		c-0.7-0.7-1.8-1-3.5-1h-2v13.6h-3.4h-3.4L505.4,101.9L505.4,101.9z M512.3,116.5h1.9c1.8,0,2.9-0.3,3.5-1c0.6-0.7,0.9-2,0.9-3.9
		c0-1.8-0.3-3.1-0.9-3.7c-0.6-0.7-1.8-1-3.5-1h-1.9L512.3,116.5L512.3,116.5z"/>
	<path class="st3" d="M536.2,106.8H529v-2.5v-2.5h21.2v2.5v2.5h-7.2v28.4h-3.4h-3.4V106.8z"/>
	<path class="st3" d="M555.1,101.9h3.4h3.4v13.8h6.5v-13.8h3.4h3.4v33.4h-3.4h-3.4v-14.6h-6.5v14.6h-3.4H555L555.1,101.9
		L555.1,101.9z"/>
	<path class="st3" d="M612.4,123.9v1c0.1,3.9-0.7,6.7-2.2,8.4c-1.5,1.7-4.1,2.5-7.7,2.5c-3.8,0-6.5-0.9-8.1-2.7
		c-1.6-1.8-2.4-4.9-2.4-9.3v-10.3c0-4.4,0.8-7.6,2.4-9.4c1.6-1.8,4.3-2.7,8.1-2.7c3.3,0,5.8,0.8,7.4,2.5c1.5,1.6,2.3,3.9,2.2,7v0.6
		v1h-6.8v-1c0-1.7-0.2-3-0.7-3.9c-0.5-0.9-1.2-1.3-2.2-1.3c-1.3,0-2.2,0.5-2.8,1.5c-0.6,1-0.9,2.6-0.9,4.8V123
		c0,2.9,0.3,4.9,0.8,6.1c0.5,1.1,1.5,1.7,2.8,1.7c1.1,0,1.8-0.5,2.4-1.5c0.5-1,0.8-2.4,0.7-4.4v-1H612.4z"/>
	<path class="st3" d="M623.8,101.9h4h4l7.6,33.4h-3.3h-3.3l-1.3-7.2h-7.3l-1.4,7.2h-3.3h-3.3L623.8,101.9z M625.1,123.1h5.5l-2.7-15
		h0L625.1,123.1z"/>
	<path class="st3" d="M644,101.9h3.4h6.6c3.6,0,6.1,0.7,7.7,2c1.5,1.3,2.3,3.6,2.3,6.7c0,3.5-0.8,5.9-2.3,7.2
		c-0.8,0.6-2,1.1-3.6,1.4h0.4c1.9,0,3.3,0.6,4.2,1.8c1,1.2,1.4,3,1.3,5.2c0,1.3-0.1,2.6,0,4.1c0,1.5,0.1,2.6,0.1,3.3
		c0.1,0.8,0.2,1.3,0.3,1.7H661h-3.4c-0.1-0.4-0.2-0.9-0.2-1.7c0-0.7-0.1-1.9-0.1-3.3v-4.1c0-1.7-0.3-2.9-0.9-3.5
		c-0.7-0.7-1.8-1-3.5-1h-2v13.6h-3.4H644L644,101.9L644,101.9z M650.9,116.5h1.9c1.8,0,2.9-0.3,3.5-1c0.6-0.7,0.9-2,0.9-3.9
		c0-1.8-0.3-3.1-0.9-3.7c-0.6-0.7-1.8-1-3.5-1h-1.9L650.9,116.5L650.9,116.5z"/>
	<path class="st3" d="M671.6,133.2c-1.6-1.7-2.3-4.6-2.3-8.8v-13.8c0-3.1,0.9-5.4,2.6-7c1.7-1.5,4.3-2.3,7.8-2.3
		c3.5,0,6.1,0.8,7.8,2.3c1.7,1.5,2.6,3.9,2.6,7v13.8c0,4.2-0.8,7.1-2.3,8.8c-1.6,1.7-4.3,2.6-8.1,2.6
		C675.8,135.8,673.1,134.9,671.6,133.2z M682.4,129.4c0.5-0.9,0.8-2.5,0.8-4.7V111c0-1.5-0.3-2.6-0.9-3.4c-0.6-0.8-1.5-1.2-2.7-1.2
		c-1.2,0-2.1,0.4-2.7,1.2s-0.9,1.9-0.9,3.4v13.8c0,2.3,0.3,3.8,0.8,4.7c0.5,0.9,1.4,1.3,2.8,1.3C681,130.8,681.9,130.3,682.4,129.4z
		"/>
	<path class="st3" d="M696.4,135.3v-33.4h3.4h3.4v28.4h8.7v2.5v2.5L696.4,135.3L696.4,135.3z"/>
	<path class="st3" d="M716.5,101.9h3.4h3.4v33.4H720h-3.4V101.9z"/>
	<path class="st3" d="M735.1,135.3h-2.8h-2.8v-33.4h5h5l5.8,28.2v-28.2h2.8h2.8v33.4h-5h-5l-5.8-28.4L735.1,135.3L735.1,135.3z"/>
	<path class="st3" d="M763.3,101.9h4h4l7.6,33.4h-3.3h-3.3l-1.3-7.2h-7.3l-1.4,7.2h-3.3h-3.3L763.3,101.9z M764.6,123.1h5.5l-2.7-15
		h0L764.6,123.1z"/>
	<polygon class="st2" points="783.9,153.9 783.9,183 302.9,183 318.3,153.9 	"/>
	<polygon class="st1" points="302.8,153.9 287.4,183 299.2,183 314.6,153.9 	"/>
	<polygon class="st0" points="287.3,153.9 271.9,183 283.7,183 299.1,153.9 	"/>
	<g>
		<path class="st3" d="M354.3,160h-4v-0.6v-0.6h9.5v0.6v0.6h-4v16H355h-0.7V160z"/>
		<path class="st3" d="M361.4,158.7h0.7h0.7v6.1l0,0c0.6-0.7,1.5-1.1,2.6-1.1c1,0,1.7,0.3,2.2,0.9c0.5,0.6,0.8,1.5,0.8,2.6v8.7h-0.7
			H367v-8.7c0-0.8-0.2-1.4-0.5-1.8c-0.3-0.4-0.8-0.6-1.4-0.6c-0.8,0-1.4,0.3-1.7,0.8s-0.5,1.4-0.5,2.5v7.8h-0.7h-0.7V158.7z"/>
		<path class="st3" d="M374.5,176.2c-1.1,0-2-0.3-2.6-1c-0.6-0.7-0.9-1.6-0.9-2.8v-5c0-1.2,0.3-2.1,0.9-2.7c0.6-0.6,1.5-1,2.6-1
			s2,0.3,2.6,1c0.6,0.6,0.9,1.5,0.9,2.7v3h-5.6v2c0,0.9,0.2,1.6,0.5,2.1c0.3,0.4,0.9,0.7,1.6,0.7c0.8,0,1.3-0.2,1.6-0.6
			c0.3-0.4,0.5-1.1,0.5-2.1h1.4c0,1.4-0.3,2.3-0.8,3C376.6,175.9,375.7,176.2,374.5,176.2z M376.6,169.3v-1.9c0-0.9-0.2-1.5-0.5-2
			c-0.3-0.4-0.9-0.6-1.6-0.6s-1.2,0.2-1.6,0.6c-0.3,0.4-0.5,1.1-0.5,2v1.9H376.6z"/>
		<path class="st3" d="M386,158.7h0.7h0.7v6.1l0,0c0.6-0.7,1.5-1.1,2.6-1.1c1,0,1.7,0.3,2.2,0.9c0.5,0.6,0.8,1.5,0.8,2.6v8.7h-0.7
			h-0.7v-8.7c0-0.8-0.2-1.4-0.5-1.8c-0.3-0.4-0.8-0.6-1.4-0.6c-0.8,0-1.4,0.3-1.7,0.8s-0.5,1.4-0.5,2.5v7.8h-0.7H386V158.7z"/>
		<path class="st3" d="M398.2,176.2c-1,0-1.8-0.3-2.3-0.9c-0.5-0.6-0.7-1.5-0.7-2.7v-0.2c0-1.3,0.4-2.3,1.2-2.8
			c0.8-0.5,2.1-0.8,4-0.8h0.5V167c0-0.7-0.2-1.2-0.5-1.6s-0.8-0.6-1.4-0.6c-0.7,0-1.2,0.2-1.5,0.6c-0.3,0.4-0.4,1.1-0.4,2h-1.4
			c0-1.3,0.3-2.3,0.8-2.9c0.5-0.6,1.4-0.9,2.6-0.9c1.1,0,2,0.3,2.5,0.8c0.6,0.5,0.9,1.3,0.9,2.3v9.1h-1.4V175
			C400.1,175.8,399.3,176.2,398.2,176.2z M400.7,169.9H400c-1.3,0-2.1,0.2-2.7,0.6c-0.5,0.4-0.8,1-0.8,2v0.2c0,0.8,0.2,1.5,0.5,1.9
			c0.3,0.4,0.8,0.6,1.5,0.6c0.8,0,1.3-0.3,1.7-0.8c0.3-0.5,0.5-1.4,0.5-2.6V169.9z"/>
		<path class="st3" d="M405.2,164h0.7h0.7v1.5c0.1-0.2,0.3-0.4,0.4-0.5c0.6-0.6,1.5-1,2.7-1h0.1v1.1l-0.3,0c-1,0-1.7,0.2-2.2,0.6
			c-0.5,0.4-0.7,1.1-0.7,2v8.2h-0.7h-0.7V164z"/>
		<path class="st3" d="M410.4,164h0.7h0.7l2.6,11.2h0l2.8-11.2h0.6h0.6l-2.9,12h-1.1h-1.1L410.4,164z"/>
		<path class="st3" d="M423.6,176.2c-1.1,0-2-0.3-2.6-1c-0.6-0.7-0.9-1.6-0.9-2.8v-5c0-1.2,0.3-2.1,0.9-2.7c0.6-0.6,1.5-1,2.6-1
			s2,0.3,2.6,1c0.6,0.6,0.9,1.5,0.9,2.7v3h-5.6v2c0,0.9,0.2,1.6,0.5,2.1c0.3,0.4,0.9,0.7,1.6,0.7c0.8,0,1.3-0.2,1.6-0.6
			c0.3-0.4,0.5-1.1,0.5-2.1h1.4c0,1.4-0.3,2.3-0.8,3C425.7,175.9,424.8,176.2,423.6,176.2z M425.7,169.3v-1.9c0-0.9-0.2-1.5-0.5-2
			c-0.3-0.4-0.9-0.6-1.6-0.6s-1.2,0.2-1.6,0.6c-0.3,0.4-0.5,1.1-0.5,2v1.9H425.7z"/>
		<path class="st3" d="M433.8,167.4c0-0.9-0.1-1.6-0.4-2c-0.3-0.4-0.7-0.6-1.3-0.6c-0.5,0-0.9,0.1-1.1,0.4c-0.2,0.3-0.4,0.7-0.4,1.3
			c0,0.4,0.1,0.7,0.4,1.1c0.3,0.3,0.8,0.8,1.6,1.4c1,0.8,1.8,1.5,2.2,2.1c0.4,0.5,0.6,1.1,0.6,1.7c0,1.1-0.3,2-0.8,2.5
			c-0.5,0.6-1.3,0.8-2.4,0.8c-1.1,0-1.9-0.3-2.4-0.9c-0.5-0.6-0.7-1.6-0.7-3h1.4c0,1,0.1,1.8,0.4,2.2s0.7,0.7,1.4,0.7
			c0.6,0,1.1-0.2,1.4-0.5s0.4-0.9,0.4-1.6c0-0.4-0.2-0.8-0.5-1.2c-0.3-0.4-0.9-0.9-1.8-1.6c-0.9-0.7-1.6-1.4-1.9-1.9
			c-0.4-0.5-0.5-1-0.5-1.5c0-1,0.3-1.8,0.8-2.3c0.5-0.5,1.3-0.8,2.3-0.8c1.1,0,1.8,0.3,2.3,0.9c0.5,0.6,0.7,1.5,0.7,2.9H433.8z"/>
		<path class="st3" d="M441.8,176.1c-0.4,0.1-0.9,0.1-1.4,0.1c-0.8,0-1.3-0.2-1.6-0.6c-0.3-0.4-0.5-1.2-0.5-2.3V165h-1.9v-1h1.9
			v-1.8l1.4-0.6v2.4h2.1v1h-2.1v7.1c0,1.2,0.1,2,0.2,2.4c0.1,0.4,0.4,0.6,0.8,0.6c0.4,0,0.8,0,1.1-0.1V176.1z"/>
		<path class="st3" d="M449.4,158.7h1.6v1.7h-1.6V158.7z M449.5,164h0.7h0.7v12h-0.7h-0.7V164z"/>
		<path class="st3" d="M457.9,167.4c0-0.9-0.1-1.6-0.4-2c-0.3-0.4-0.7-0.6-1.3-0.6c-0.5,0-0.9,0.1-1.1,0.4s-0.4,0.7-0.4,1.3
			c0,0.4,0.1,0.7,0.4,1.1c0.3,0.3,0.8,0.8,1.6,1.4c1,0.8,1.8,1.5,2.2,2.1c0.4,0.5,0.6,1.1,0.6,1.7c0,1.1-0.3,2-0.8,2.5
			c-0.5,0.6-1.3,0.8-2.4,0.8c-1.1,0-1.9-0.3-2.4-0.9s-0.7-1.6-0.7-3h1.4c0,1,0.1,1.8,0.4,2.2c0.3,0.4,0.7,0.7,1.4,0.7
			c0.6,0,1.1-0.2,1.4-0.5c0.3-0.4,0.4-0.9,0.4-1.6c0-0.4-0.2-0.8-0.5-1.2s-0.9-0.9-1.8-1.6c-0.9-0.7-1.6-1.4-1.9-1.9
			c-0.4-0.5-0.5-1-0.5-1.5c0-1,0.3-1.8,0.8-2.3c0.5-0.5,1.3-0.8,2.3-0.8c1.1,0,1.8,0.3,2.3,0.9c0.5,0.6,0.7,1.5,0.7,2.9H457.9z"/>
		<path class="st3" d="M467.2,164h0.7h0.7v0.9c0.6-0.8,1.5-1.2,2.5-1.2c1,0,1.7,0.3,2.3,1c0.5,0.6,0.8,1.5,0.8,2.7v5
			c0,1.2-0.3,2.2-0.8,2.8c-0.5,0.7-1.3,1-2.3,1c-1.1,0-1.9-0.4-2.5-1.2v5.4h-0.7h-0.7V164z M470.7,175.1c0.7,0,1.2-0.2,1.6-0.7
			c0.3-0.4,0.5-1.1,0.5-2.1v-5c0-0.9-0.2-1.5-0.5-2c-0.3-0.4-0.9-0.6-1.6-0.6c-0.7,0-1.2,0.3-1.6,0.9s-0.5,1.5-0.5,2.8v2.9
			c0,1.3,0.2,2.2,0.5,2.8S470,175.1,470.7,175.1z"/>
		<path class="st3" d="M476.9,158.7h0.7h0.7V176h-0.7h-0.7V158.7z"/>
		<path class="st3" d="M484.3,176.2c-1.1,0-2-0.3-2.6-1c-0.6-0.7-0.9-1.6-0.9-2.8v-5c0-1.2,0.3-2.1,0.9-2.7c0.6-0.6,1.5-1,2.6-1
			s2,0.3,2.6,1c0.6,0.6,0.9,1.5,0.9,2.7v3h-5.6v2c0,0.9,0.2,1.6,0.5,2.1c0.3,0.4,0.9,0.7,1.6,0.7c0.8,0,1.3-0.2,1.6-0.6
			c0.3-0.4,0.5-1.1,0.5-2.1h1.4c0,1.4-0.3,2.3-0.8,3C486.4,175.9,485.5,176.2,484.3,176.2z M486.4,169.3v-1.9c0-0.9-0.2-1.5-0.5-2
			c-0.3-0.4-0.9-0.6-1.6-0.6s-1.2,0.2-1.6,0.6c-0.3,0.4-0.5,1.1-0.5,2v1.9H486.4z"/>
		<path class="st3" d="M490.2,164h0.7h0.7v1l0.1-0.1c0.6-0.7,1.5-1.1,2.6-1.1c1,0,1.7,0.3,2.2,0.9c0.5,0.6,0.8,1.5,0.8,2.6v8.7h-0.7
			h-0.7v-8.7c0-0.8-0.2-1.4-0.5-1.8s-0.8-0.6-1.4-0.6c-0.8,0-1.4,0.3-1.7,0.8c-0.4,0.5-0.5,1.4-0.5,2.5v7.8h-0.7h-0.7V164z"/>
		<path class="st3" d="M504.4,176.1c-0.4,0.1-0.9,0.1-1.4,0.1c-0.8,0-1.3-0.2-1.6-0.6c-0.3-0.4-0.5-1.2-0.5-2.3V165H499v-1h1.9v-1.8
			l1.4-0.6v2.4h2.1v1h-2.1v7.1c0,1.2,0.1,2,0.2,2.4c0.1,0.4,0.4,0.6,0.8,0.6c0.4,0,0.8,0,1.1-0.1V176.1z"/>
		<path class="st3" d="M506.4,158.7h1.6v1.7h-1.6V158.7z M506.5,164h0.7h0.7v12h-0.7h-0.7V164z"/>
		<path class="st3" d="M513,165v11h-0.7h-0.7v-11h-1.9v-1h1.9v-2.9c0-0.9,0.2-1.6,0.5-1.9c0.4-0.4,1-0.5,1.9-0.5l0.8,0v1.1
			c-0.2,0-0.4-0.1-0.7,0c-0.5,0-0.8,0.1-1,0.3s-0.2,0.6-0.2,1.1v2.9h1.9v1H513z"/>
		<path class="st3" d="M518.1,172.9c0,0.7,0.2,1.3,0.5,1.6c0.3,0.4,0.8,0.5,1.4,0.5c0.8,0,1.4-0.3,1.7-0.8s0.5-1.4,0.5-2.5V164h0.7
			h0.7v12H523h-0.7v-1l-0.1,0.1c-0.6,0.7-1.5,1.1-2.7,1.1c-0.9,0-1.6-0.3-2.1-0.9s-0.7-1.4-0.7-2.5V164h0.7h0.7V172.9z"/>
		<path class="st3" d="M526.4,158.7h0.7h0.7V176h-0.7h-0.7V158.7z"/>
		<path class="st3" d="M536.2,158.7h0.7h0.7v6.1c0.6-0.8,1.5-1.2,2.5-1.2c1,0,1.7,0.3,2.3,1c0.5,0.6,0.8,1.5,0.8,2.7v5
			c0,1.2-0.3,2.2-0.8,2.8c-0.5,0.7-1.3,1-2.3,1c-1.1,0-1.9-0.4-2.5-1.2v0.9h-1.4V158.7z M539.7,175.1c0.7,0,1.2-0.2,1.6-0.7
			c0.3-0.4,0.5-1.1,0.5-2.1v-5c0-0.9-0.2-1.5-0.5-2c-0.3-0.4-0.9-0.6-1.6-0.6c-0.7,0-1.2,0.3-1.6,0.9s-0.5,1.5-0.5,2.8v2.9
			c0,1.3,0.2,2.2,0.5,2.8C538.4,174.8,539,175.1,539.7,175.1z"/>
		<path class="st3" d="M547.2,172.9c0,0.7,0.2,1.3,0.5,1.6c0.3,0.4,0.8,0.5,1.4,0.5c0.8,0,1.4-0.3,1.7-0.8s0.5-1.4,0.5-2.5V164h0.7
			h0.7v12h-0.7h-0.7v-1l-0.1,0.1c-0.6,0.7-1.5,1.1-2.7,1.1c-0.9,0-1.6-0.3-2.1-0.9s-0.7-1.4-0.7-2.5V164h0.7h0.7V172.9z"/>
		<path class="st3" d="M559.9,176.1c-0.4,0.1-0.9,0.1-1.4,0.1c-0.8,0-1.3-0.2-1.6-0.6c-0.3-0.4-0.5-1.2-0.5-2.3V165h-1.9v-1h1.9
			v-1.8l1.4-0.6v2.4h2.1v1h-2.1v7.1c0,1.2,0.1,2,0.2,2.4c0.1,0.4,0.4,0.6,0.8,0.6c0.4,0,0.8,0,1.1-0.1V176.1z"/>
		<path class="st3" d="M572,176.1c-0.4,0.1-0.9,0.1-1.4,0.1c-0.8,0-1.3-0.2-1.6-0.6c-0.3-0.4-0.5-1.2-0.5-2.3V165h-1.9v-1h1.9v-1.8
			l1.4-0.6v2.4h2.1v1h-2.1v7.1c0,1.2,0.1,2,0.2,2.4c0.1,0.4,0.4,0.6,0.8,0.6c0.4,0,0.8,0,1.1-0.1V176.1z"/>
		<path class="st3" d="M574,158.7h0.7h0.7v6.1l0,0c0.6-0.7,1.5-1.1,2.6-1.1c1,0,1.7,0.3,2.2,0.9c0.5,0.6,0.8,1.5,0.8,2.6v8.7h-0.7
			h-0.7v-8.7c0-0.8-0.2-1.4-0.5-1.8s-0.8-0.6-1.4-0.6c-0.8,0-1.4,0.3-1.7,0.8c-0.4,0.5-0.5,1.4-0.5,2.5v7.8h-0.7H574V158.7z"/>
		<path class="st3" d="M587.1,176.2c-1.1,0-2-0.3-2.6-1c-0.6-0.7-0.9-1.6-0.9-2.8v-5c0-1.2,0.3-2.1,0.9-2.7c0.6-0.6,1.5-1,2.6-1
			s2,0.3,2.6,1c0.6,0.6,0.9,1.5,0.9,2.7v3H585v2c0,0.9,0.2,1.6,0.5,2.1c0.3,0.4,0.9,0.7,1.6,0.7c0.8,0,1.3-0.2,1.6-0.6
			c0.3-0.4,0.5-1.1,0.5-2.1h1.4c0,1.4-0.3,2.3-0.8,3C589.2,175.9,588.3,176.2,587.1,176.2z M589.2,169.3v-1.9c0-0.9-0.2-1.5-0.5-2
			c-0.3-0.4-0.9-0.6-1.6-0.6s-1.2,0.2-1.6,0.6c-0.3,0.4-0.5,1.1-0.5,2v1.9H589.2z"/>
		<path class="st3" d="M600.3,176l-2.7-12h0.7h0.7l2.3,11.2h0l2.2-11.2h1.1h1.1l2.4,11h0l2.2-11h0.7h0.7l-2.6,12h-1.1h-1.1l-2.3-11
			h0l-2.2,11h-1.1H600.3z"/>
		<path class="st3" d="M614.8,175.2c-0.6-0.7-0.9-1.6-0.9-2.8v-5c0-1.2,0.3-2.1,0.9-2.7c0.6-0.6,1.5-1,2.6-1c1.1,0,2,0.3,2.6,1
			c0.6,0.6,0.9,1.5,0.9,2.7v5c0,1.2-0.3,2.2-0.9,2.8c-0.6,0.7-1.5,1-2.6,1C616.3,176.2,615.4,175.9,614.8,175.2z M619,174.4
			c0.3-0.4,0.5-1.1,0.5-2.1v-5c0-0.9-0.2-1.5-0.5-2c-0.3-0.4-0.9-0.6-1.6-0.6c-0.7,0-1.2,0.2-1.6,0.6c-0.3,0.4-0.5,1.1-0.5,2v5
			c0,0.9,0.2,1.6,0.5,2.1c0.3,0.4,0.9,0.7,1.6,0.7C618.1,175.1,618.7,174.9,619,174.4z"/>
		<path class="st3" d="M623.9,164h0.7h0.7v1.5c0.1-0.2,0.3-0.4,0.4-0.5c0.6-0.6,1.5-1,2.7-1h0.1v1.1l-0.3,0c-1,0-1.7,0.2-2.2,0.6
			c-0.5,0.4-0.7,1.1-0.7,2v8.2h-0.7h-0.7V164z"/>
		<path class="st3" d="M631.5,176h-0.7h-0.7v-17.2h0.7h0.7V176z M631.8,169.1L631.8,169.1l4-5.2h0.8h0.8l-4,5.2l4.4,6.8h-0.8h-0.8
			L631.8,169.1z"/>
		<path class="st3" d="M642.7,176.2c-1.1,0-2-0.3-2.6-1c-0.6-0.7-0.9-1.6-0.9-2.8v-5c0-1.2,0.3-2.1,0.9-2.7c0.6-0.6,1.5-1,2.6-1
			s2,0.3,2.6,1c0.6,0.6,0.9,1.5,0.9,2.7v3h-5.6v2c0,0.9,0.2,1.6,0.5,2.1c0.3,0.4,0.9,0.7,1.6,0.7c0.8,0,1.3-0.2,1.6-0.6
			c0.3-0.4,0.5-1.1,0.5-2.1h1.4c0,1.4-0.3,2.3-0.8,3C644.8,175.9,643.9,176.2,642.7,176.2z M644.8,169.3v-1.9c0-0.9-0.2-1.5-0.5-2
			c-0.3-0.4-0.9-0.6-1.6-0.6s-1.2,0.2-1.6,0.6c-0.3,0.4-0.5,1.1-0.5,2v1.9H644.8z"/>
		<path class="st3" d="M648.9,164h0.7h0.7v1.5c0.1-0.2,0.3-0.4,0.4-0.5c0.6-0.6,1.5-1,2.7-1h0.1v1.1l-0.3,0c-1,0-1.7,0.2-2.2,0.6
			s-0.7,1.1-0.7,2v8.2h-0.7h-0.7V164z"/>
		<path class="st3" d="M659.4,167.4c0-0.9-0.1-1.6-0.4-2c-0.3-0.4-0.7-0.6-1.3-0.6c-0.5,0-0.9,0.1-1.1,0.4s-0.4,0.7-0.4,1.3
			c0,0.4,0.1,0.7,0.4,1.1c0.3,0.3,0.8,0.8,1.6,1.4c1,0.8,1.8,1.5,2.2,2.1c0.4,0.5,0.6,1.1,0.6,1.7c0,1.1-0.3,2-0.8,2.5
			c-0.5,0.6-1.3,0.8-2.4,0.8c-1.1,0-1.9-0.3-2.4-0.9s-0.7-1.6-0.7-3h1.4c0,1,0.1,1.8,0.4,2.2c0.3,0.4,0.7,0.7,1.4,0.7
			c0.6,0,1.1-0.2,1.4-0.5c0.3-0.4,0.4-0.9,0.4-1.6c0-0.4-0.2-0.8-0.5-1.2s-0.9-0.9-1.8-1.6c-0.9-0.7-1.6-1.4-1.9-1.9
			c-0.4-0.5-0.5-1-0.5-1.5c0-1,0.3-1.8,0.8-2.3c0.5-0.5,1.3-0.8,2.3-0.8c1.1,0,1.8,0.3,2.3,0.9c0.5,0.6,0.7,1.5,0.7,2.9H659.4z"/>
		<path class="st3" d="M671,176.2c-1,0-1.8-0.3-2.3-0.9c-0.5-0.6-0.7-1.5-0.7-2.7v-0.2c0-1.3,0.4-2.3,1.2-2.8c0.8-0.5,2.1-0.8,4-0.8
			h0.5V167c0-0.7-0.2-1.2-0.5-1.6s-0.8-0.6-1.4-0.6c-0.7,0-1.2,0.2-1.5,0.6c-0.3,0.4-0.4,1.1-0.4,2h-1.4c0-1.3,0.3-2.3,0.8-2.9
			s1.4-0.9,2.6-0.9c1.1,0,2,0.3,2.5,0.8c0.6,0.5,0.9,1.3,0.9,2.3v9.1h-1.4V175C673,175.8,672.2,176.2,671,176.2z M673.6,169.9h-0.8
			c-1.3,0-2.1,0.2-2.7,0.6c-0.5,0.4-0.8,1-0.8,2v0.2c0,0.8,0.2,1.5,0.5,1.9c0.3,0.4,0.8,0.6,1.5,0.6c0.8,0,1.3-0.3,1.7-0.8
			c0.3-0.5,0.5-1.4,0.5-2.6V169.9z"/>
		<path class="st3" d="M678.1,164h0.7h0.7v1.5c0.1-0.2,0.3-0.4,0.4-0.5c0.6-0.6,1.5-1,2.7-1h0.1v1.1l-0.3,0c-1,0-1.7,0.2-2.2,0.6
			s-0.7,1.1-0.7,2v8.2h-0.7h-0.7V164z"/>
		<path class="st3" d="M687.6,176.2c-1.1,0-2-0.3-2.6-1c-0.6-0.7-0.9-1.6-0.9-2.8v-5c0-1.2,0.3-2.1,0.9-2.7c0.6-0.6,1.5-1,2.6-1
			s2,0.3,2.6,1c0.6,0.6,0.9,1.5,0.9,2.7v3h-5.6v2c0,0.9,0.2,1.6,0.5,2.1c0.3,0.4,0.9,0.7,1.6,0.7c0.8,0,1.3-0.2,1.6-0.6
			c0.3-0.4,0.5-1.1,0.5-2.1h1.4c0,1.4-0.3,2.3-0.8,3C689.8,175.9,688.9,176.2,687.6,176.2z M689.7,169.3v-1.9c0-0.9-0.2-1.5-0.5-2
			c-0.3-0.4-0.9-0.6-1.6-0.6s-1.2,0.2-1.6,0.6c-0.3,0.4-0.5,1.1-0.5,2v1.9H689.7z"/>
		<path class="st3" d="M701.5,165v11h-0.7h-0.7v-11h-1.9v-1h1.9v-2.9c0-0.9,0.2-1.6,0.5-1.9c0.4-0.4,1-0.5,1.9-0.5l0.8,0v1.1
			c-0.2,0-0.4-0.1-0.7,0c-0.5,0-0.8,0.1-1,0.3s-0.2,0.6-0.2,1.1v2.9h1.9v1H701.5z"/>
		<path class="st3" d="M708.5,176.2c-1.1,0-2-0.3-2.6-1c-0.6-0.7-0.9-1.6-0.9-2.8v-5c0-1.2,0.3-2.1,0.9-2.7c0.6-0.6,1.5-1,2.6-1
			s2,0.3,2.6,1c0.6,0.6,0.9,1.5,0.9,2.7v3h-5.6v2c0,0.9,0.2,1.6,0.5,2.1c0.3,0.4,0.9,0.7,1.6,0.7c0.8,0,1.3-0.2,1.6-0.6
			c0.3-0.4,0.5-1.1,0.5-2.1h1.4c0,1.4-0.3,2.3-0.8,3C710.6,175.9,709.7,176.2,708.5,176.2z M710.6,169.3v-1.9c0-0.9-0.2-1.5-0.5-2
			c-0.3-0.4-0.9-0.6-1.6-0.6s-1.2,0.2-1.6,0.6c-0.3,0.4-0.5,1.1-0.5,2v1.9H710.6z"/>
		<path class="st3" d="M716.2,176l-2.7-12h0.7h0.7l2.3,11.2h0l2.2-11.2h1.1h1.1l2.4,11h0l2.2-11h0.7h0.7l-2.6,12h-1.1H723l-2.3-11
			l-2.2,11h-1.1H716.2z"/>
		<path class="st3" d="M730.3,174h2v1.9h-2V174z"/>
		<path class="st3" d="M735.8,174h2v1.9h-2V174z"/>
		<path class="st3" d="M741.4,174h2v1.9h-2V174z"/>
	</g>
</g>
</svg>
